<svg width="55" height="55" viewBox="0 0 55 55" fill="none" xmlns="http://www.w3.org/2000/svg">
<g id="material-symbols:timer-outline">
<path id="Vector" d="M20.625 6.87499V2.29166H34.375V6.87499H20.625ZM25.2083 32.0833H29.7917V18.3333H25.2083V32.0833ZM27.5 50.4167C24.6736 50.4167 22.0092 49.8728 19.5067 48.785C17.0042 47.6972 14.8179 46.2168 12.9479 44.3437C11.0764 42.4722 9.59674 40.2852 8.50896 37.7827C7.42118 35.2802 6.87653 32.6165 6.875 29.7917C6.875 26.9653 7.41965 24.3008 8.50896 21.7983C9.59826 19.2958 11.0779 17.1096 12.9479 15.2396C14.8194 13.368 17.0065 11.8884 19.509 10.8006C22.0115 9.71284 24.6751 9.16818 27.5 9.16666C29.8681 9.16666 32.1406 9.5486 34.3177 10.3125C36.4948 11.0764 38.5382 12.184 40.4479 13.6354L43.6562 10.4271L46.8646 13.6354L43.6562 16.8437C45.1076 18.7535 46.2153 20.7969 46.9792 22.9739C47.7431 25.151 48.125 27.4236 48.125 29.7917C48.125 32.618 47.5804 35.2825 46.491 37.785C45.4017 40.2875 43.9221 42.4737 42.0521 44.3437C40.1806 46.2153 37.9935 47.6957 35.491 48.785C32.9885 49.8743 30.3249 50.4182 27.5 50.4167ZM27.5 45.8333C31.9306 45.8333 35.7118 44.2674 38.8438 41.1354C41.9757 38.0035 43.5417 34.2222 43.5417 29.7917C43.5417 25.3611 41.9757 21.5799 38.8438 18.4479C35.7118 15.316 31.9306 13.75 27.5 13.75C23.0694 13.75 19.2882 15.316 16.1563 18.4479C13.0243 21.5799 11.4583 25.3611 11.4583 29.7917C11.4583 34.2222 13.0243 38.0035 16.1563 41.1354C19.2882 44.2674 23.0694 45.8333 27.5 45.8333Z" fill="white"/>
</g>
</svg>
