<svg width="1440" height="1024" viewBox="0 0 1440 1024" fill="none" xmlns="http://www.w3.org/2000/svg">
<ellipse cx="720" cy="512" rx="720" ry="512" fill="#2D2D2D"/>
<path d="M1398.89 467.208C1400.27 477.274 1401.19 487.431 1401.65 497.669L1399.66 497.759C1399.88 502.82 1400 507.9 1400 513C1400 518.099 1399.88 523.18 1399.66 528.241L1401.65 528.331C1401.19 538.569 1400.27 548.726 1398.89 558.792L1396.91 558.521C1395.54 568.591 1393.71 578.569 1391.45 588.446L1393.4 588.893C1391.13 598.831 1388.41 608.666 1385.27 618.389L1383.37 617.774C1380.26 627.399 1376.73 636.915 1372.8 646.311L1374.65 647.083C1370.72 656.453 1366.4 665.702 1361.69 674.823L1359.92 673.906C1355.29 682.866 1350.29 691.703 1344.92 700.406L1346.62 701.456C1341.31 710.071 1335.65 718.554 1329.65 726.897L1328.02 725.729C1322.14 733.904 1315.93 741.944 1309.4 749.842L1310.94 751.117C1304.5 758.914 1297.75 766.572 1290.7 774.083L1289.24 772.714C1282.35 780.063 1275.17 787.271 1267.72 794.331L1269.09 795.783C1261.74 802.741 1254.13 809.555 1246.27 816.218L1244.98 814.692C1237.29 821.201 1229.37 827.566 1221.2 833.779L1222.42 835.37C1214.37 841.493 1206.1 847.468 1197.62 853.29L1196.49 851.641C1188.18 857.344 1179.65 862.9 1170.93 868.302L1171.99 870.002C1163.39 875.328 1154.59 880.505 1145.61 885.528L1144.64 883.782C1135.83 888.708 1126.84 893.484 1117.68 898.106L1118.58 899.891C1109.55 904.452 1100.34 908.862 1090.98 913.116L1090.15 911.296C1080.96 915.474 1071.61 919.501 1062.11 923.373L1062.87 925.225C1053.49 929.05 1043.96 932.723 1034.31 936.24L1033.62 934.361C1024.12 937.819 1014.49 941.126 1004.74 944.276L1005.35 946.18C995.706 949.295 985.938 952.258 976.055 955.064L975.509 953.14C965.777 955.903 955.933 958.513 945.982 960.967L946.461 962.909C936.613 965.337 926.661 967.612 916.612 969.73L916.199 967.773C906.293 969.861 896.291 971.795 886.199 973.573L886.546 975.542C876.55 977.303 866.467 978.91 856.301 980.359L856.019 978.379C846 979.807 835.901 981.081 825.727 982.198L825.946 984.187C815.864 985.294 805.708 986.247 795.485 987.043L795.33 985.049C785.236 985.834 775.075 986.466 764.853 986.94L764.946 988.938C754.808 989.408 744.61 989.724 734.357 989.882L734.326 987.882C729.231 987.961 724.122 988 719 988C713.878 988 708.769 987.961 703.674 987.882L703.643 989.882C693.39 989.724 683.192 989.408 673.054 988.938L673.147 986.94C662.924 986.466 652.764 985.834 642.67 985.049L642.515 987.043C632.291 986.247 622.136 985.294 612.054 984.186L612.273 982.198C602.099 981.081 592 979.807 581.981 978.379L581.699 980.359C571.533 978.91 561.449 977.303 551.453 975.542L551.8 973.573C541.709 971.795 531.707 969.861 521.8 967.773L521.388 969.73C511.339 967.612 501.387 965.337 491.539 962.909L492.018 960.967C482.067 958.513 472.223 955.903 462.491 953.14L461.945 955.064C452.062 952.258 442.294 949.295 432.648 946.18L433.263 944.276C423.508 941.126 413.877 937.819 404.379 934.361L403.695 936.24C394.037 932.723 384.514 929.05 375.134 925.225L375.889 923.373C366.393 919.502 357.043 915.474 347.848 911.296L347.02 913.116C337.658 908.862 328.454 904.452 319.416 899.891L320.317 898.106C311.159 893.484 302.172 888.708 293.365 883.782L292.388 885.528C283.409 880.505 274.615 875.328 266.015 870.002L267.068 868.302C258.346 862.9 249.824 857.344 241.512 851.641L240.381 853.29C231.895 847.469 223.626 841.493 215.584 835.37L216.795 833.779C208.633 827.566 200.706 821.201 193.022 814.692L191.73 816.218C183.865 809.555 176.255 802.741 168.909 795.783L170.284 794.331C162.831 787.271 155.652 780.063 148.757 772.714L147.299 774.083C140.252 766.572 133.501 758.914 127.056 751.117L128.598 749.843C122.07 741.944 115.859 733.904 109.977 725.729L108.353 726.898C102.35 718.554 96.6864 710.071 91.376 701.456L93.0785 700.407C87.7133 691.703 82.711 682.867 78.0845 673.906L76.3074 674.824C71.5981 665.703 67.2756 656.453 63.3537 647.083L65.1986 646.311C61.2655 636.915 57.738 627.4 54.6298 617.774L52.7266 618.389C49.5869 608.666 46.8724 598.831 44.5974 588.893L46.5469 588.447C44.2858 578.57 42.4615 568.591 41.0882 558.522L39.1066 558.792C37.7338 548.726 36.809 538.569 36.3461 528.331L38.3441 528.241C38.1153 523.18 38 518.1 38 513C38 507.901 38.1153 502.82 38.344 497.759L36.3461 497.669C36.809 487.431 37.7338 477.274 39.1065 467.208L41.0882 467.479C42.4615 457.409 44.2858 447.431 46.5469 437.554L44.5973 437.107C46.8723 427.169 49.5868 417.334 52.7265 407.611L54.6297 408.226C57.7379 398.6 61.2654 389.085 65.1985 379.689L63.3536 378.917C67.2755 369.547 71.598 360.298 76.3073 351.177L78.0844 352.094C82.7109 343.134 87.7132 334.297 93.0784 325.594L91.3759 324.544C96.6863 315.929 102.35 307.446 108.353 299.103L109.977 300.271C115.859 292.096 122.07 284.056 128.598 276.158L127.056 274.883C133.501 267.086 140.252 259.428 147.299 251.917L148.757 253.286C155.652 245.937 162.831 238.729 170.284 231.669L168.909 230.217C176.255 223.259 183.865 216.445 191.73 209.782L193.022 211.308C200.706 204.799 208.633 198.434 216.795 192.221L215.584 190.63C223.626 184.507 231.895 178.532 240.381 172.71L241.512 174.359C249.824 168.656 258.346 163.1 267.068 157.698L266.015 155.998C274.615 150.672 283.409 145.494 292.388 140.472L293.365 142.218C302.172 137.292 311.159 132.516 320.317 127.894L319.416 126.109C328.454 121.548 337.658 117.138 347.02 112.884L347.848 114.704C357.043 110.526 366.393 106.499 375.889 102.627L375.134 100.775C384.514 96.9498 394.037 93.2767 403.695 89.7602L404.379 91.6395C413.878 88.181 423.508 84.8741 433.263 81.7235L432.648 79.8203C442.294 76.705 452.062 73.7422 461.945 70.9364L462.491 72.8604C472.223 70.0975 482.067 67.487 492.018 65.0333L491.539 63.0915C501.387 60.663 511.339 58.3878 521.388 56.2699L521.801 58.2269C531.707 56.1392 541.709 54.2046 551.801 52.4272L551.454 50.4575C561.45 48.697 571.533 47.0903 581.699 45.6414L581.981 47.6214C592 46.1934 602.099 44.9189 612.273 43.8015L612.054 41.8135C622.136 40.7062 632.292 39.753 642.515 38.9574L642.67 40.9514C652.764 40.1659 662.925 39.5343 673.147 39.0601L673.054 37.0622C683.192 36.592 693.39 36.2762 703.643 36.1182L703.674 38.118C708.769 38.0395 713.878 38 719 38C724.122 38 729.231 38.0395 734.326 38.118L734.357 36.1182C744.61 36.2762 754.808 36.592 764.946 37.0622L764.853 39.0601C775.076 39.5343 785.236 40.1659 795.33 40.9514L795.485 38.9575C805.709 39.7531 815.864 40.7063 825.946 41.8135L825.727 43.8016C835.901 44.9189 846 46.1934 856.019 47.6214L856.301 45.6414C866.467 47.0903 876.551 48.697 886.547 50.4576L886.2 52.4272C896.291 54.2046 906.293 56.1392 916.2 58.227L916.612 56.27C926.661 58.3878 936.613 60.663 946.461 63.0915L945.982 65.0333C955.933 67.487 965.777 70.0975 975.509 72.8604L976.055 70.9364C985.938 73.7422 995.706 76.705 1005.35 79.8203L1004.74 81.7235C1014.49 84.8741 1024.12 88.181 1033.62 91.6395L1034.31 89.7602C1043.96 93.2767 1053.49 96.9498 1062.87 100.775L1062.11 102.627C1071.61 106.499 1080.96 110.526 1090.15 114.704L1090.98 112.884C1100.34 117.138 1109.55 121.548 1118.58 126.109L1117.68 127.894C1126.84 132.516 1135.83 137.292 1144.64 142.218L1145.61 140.472C1154.59 145.494 1163.39 150.672 1171.99 155.998L1170.93 157.698C1179.65 163.1 1188.18 168.656 1196.49 174.359L1197.62 172.71C1206.1 178.532 1214.37 184.507 1222.42 190.63L1221.2 192.221C1229.37 198.434 1237.29 204.799 1244.98 211.308L1246.27 209.782C1254.13 216.445 1261.74 223.259 1269.09 230.217L1267.72 231.669C1275.17 238.729 1282.35 245.937 1289.24 253.286L1290.7 251.917C1297.75 259.428 1304.5 267.086 1310.94 274.883L1309.4 276.157C1315.93 284.056 1322.14 292.096 1328.02 300.271L1329.65 299.102C1335.65 307.446 1341.31 315.929 1346.62 324.544L1344.92 325.593C1350.29 334.297 1355.29 343.133 1359.92 352.094L1361.69 351.176C1366.4 360.297 1370.72 369.547 1374.65 378.917L1372.8 379.689C1376.73 389.085 1380.26 398.6 1383.37 408.226L1385.27 407.611C1388.41 417.334 1391.13 427.169 1393.4 437.107L1391.45 437.553C1393.71 447.43 1395.54 457.409 1396.91 467.478L1398.89 467.208Z" stroke="white" stroke-width="4" stroke-dasharray="30 30"/>
<ellipse cx="720" cy="512" rx="632" ry="435" fill="black"/>
</svg>
